<!--?xml version="1.0" encoding="utf-8"?-->
<!-- Generator: Adobe Illustrator 18.1.1, SVG Export Plug-In . SVG Version: 6.00 Build 0)  -->

<svg version="1.1" id="_x32_" xmlns="http://www.w3.org/2000/svg" xmlns:xlink="http://www.w3.org/1999/xlink" x="0px" y="0px" viewBox="0 0 512 512" style="width: 256px; height: 256px; opacity: 1;" xml:space="preserve">
<style type="text/css">
	.st0{fill:#4B4B4B;}
</style>
<g>
	<path class="st0" d="M511.797,438.593c-3.704-89.838-22.72-166.372-52.494-226.058c-29.767-59.664-70.343-102.56-117.241-124.672
		C311.94,73.661,282.738,68.485,256.9,68.485c-27.164,0-50.602,5.698-67.77,12.643c-10.236,4.147-24.46,9.381-30.014,19.632
		c-6.503,12.013,1.61,29.086,6.786,40.236c0.696,1.493,1.334,2.805,1.899,3.943c-8.584,5.749-16.014,11.701-22.097,17.189
		c-4.277,3.865-7.902,7.489-10.831,10.665c-2.921,3.175-5.133,5.872-6.655,7.967c-3.436,4.763-10.519,14.732-19.451,27.252
		c-13.39,18.784-30.904,43.28-46.346,64.34c-7.714,10.527-14.92,20.205-20.8,27.846c-2.936,3.828-5.553,7.141-7.735,9.801
		c-8.2,10.019-20.074,17.254-26.418,28.723c-8.873,16.036-10.279,39.264-1.841,55.67c18.167,35.291,63.195,42.592,87.293,10.142
		c1.326-1.784,2.37-3.342,3.11-4.474c5.307-0.834,19.937-3.204,37.844-6.655c22.56-4.357,50.225-10.41,71.104-17.362
		c7.699-2.566,14.514-6.162,20.531-10.396l3.944,77.868H512L511.797,438.593z M436.828,325.209l-93.904,7.438l83.393-42.171
		C430.253,302.169,433.748,313.834,436.828,325.209z M362.332,174.206c5.626,5.829,10.954,12.165,15.993,18.944
		c-0.414,0.218-0.848,0.442-1.319,0.688c-7.924,4.11-23.554,11.607-37.198,18.058c-6.821,3.234-13.151,6.199-17.768,8.367
		c-1.501,0.703-2.806,1.312-3.908,1.827L362.332,174.206z M268.144,127.541c4.618,0.435,9.287,1.117,14.043,2.074l-22.286,26.418
		L268.144,127.541z M210.735,363.48c0.413-3.408,0.63-6.836,0.63-10.273c-0.014-31.993-16.333-63.362-16.623-63.927v-0.007
		c-0.051-0.116-0.276-0.761-0.276-2.175c0-3.458,1.348-11.534,9.715-27.57c2.885-5.524,3.987-11.948,3.987-18.595
		c-0.007-11.622-3.371-23.938-6.72-33.37c-3.357-9.425-6.706-15.964-6.713-15.993l-0.268-0.508l-0.565,0.094
		c-0.015,0-2.712,0.449-5.437,1.153c-1.363,0.347-2.733,0.753-3.814,1.225c-0.536,0.239-1,0.486-1.392,0.79
		c-0.189,0.145-0.363,0.319-0.508,0.529c-0.138,0.218-0.246,0.486-0.246,0.798c0,0.347,0.159,0.652,0.362,0.899h-0.007
		c5.647,9.026,8.308,21.328,8.301,33.595c0.007,10.657-2.001,21.284-5.713,29.687c-3.719,8.417-9.12,14.536-15.79,16.428
		c-4.067,1.16-7.902,1.631-11.469,1.631c-7.714,0.007-14.13-2.212-18.617-4.422c-2.248-1.109-4.002-2.212-5.198-3.038
		c-0.602-0.42-1.051-0.761-1.356-1.001c-0.152-0.116-0.268-0.21-0.341-0.268l-0.108-0.094l-0.391-0.34l-0.479,0.232
		c-0.058,0.036-0.609,0.312-1.174,0.971c-0.566,0.652-1.131,1.711-1.124,3.161c0,1.442,0.544,3.226,1.994,5.416
		c1.188,1.762,3.487,3.552,6.488,5.379c9.004,5.437,24.366,10.954,34.022,11.773c0.957,0.08,1.972,0.544,3.038,1.422
		c1.863,1.529,3.777,4.306,5.546,7.96c5.307,10.969,9.323,29.752,9.316,46.825c0,7.04-0.688,13.782-2.211,19.575
		c-6.525,1.819-13.412,3.566-20.386,5.212c-2.334-25.316-16.124-43.563-29.637-55.576c-14.289-12.694-28.274-18.501-28.324-18.522
		l-3.248-1.349l2.356,2.603c0.008,0,0.116,0.123,0.333,0.377c3.19,3.683,28.23,33.957,31.732,78.296
		c-2.842,0.565-5.633,1.117-8.344,1.638c-3.48,0.674-6.829,1.304-10.019,1.885c-0.856-6.728-3.335-12.383-6.8-17.19
		c-6.481-8.997-16.218-15.159-24.75-20.727c-4.263-2.776-8.236-5.408-11.339-8.119c-3.117-2.711-5.335-5.495-6.234-8.548
		c-0.972-3.306-2.378-6.256-4.074-8.844c4.9-6.756,16.775-23.22,28.658-40.474c7.75-11.266,15.507-22.85,21.336-32.312
		c2.914-4.734,5.336-8.924,7.047-12.288c0.855-1.682,1.536-3.161,2.008-4.408c0.471-1.247,0.739-2.247,0.746-3.096l-0.014-0.341
		c-0.044-0.341-0.131-0.682-0.377-0.986c-0.246-0.304-0.682-0.478-1.03-0.471c-0.391,0.007-0.724,0.13-1.058,0.305
		c-0.652,0.34-1.363,0.906-2.204,1.689c-3.132,2.928-8.047,8.982-14.021,16.732c-8.96,11.614-20.256,26.998-31.086,41.004
		c-7.315,9.454-14.426,18.284-20.429,24.866c-3.669-2.015-7.591-3.066-11.332-3.073c-0.319,0-0.631,0.043-0.949,0.058
		c4.161-5.321,9.105-11.846,14.535-19.161c13.47-18.117,29.868-40.873,44.107-60.774c14.231-19.893,26.324-36.944,31.094-43.556
		c1.203-1.668,3.219-4.147,5.944-7.09c1.392-1.522,2.987-3.168,4.749-4.9c0.456,10.918,3.603,27.215,3.603,27.244l0.493,2.545
		l21.43-50.668c2.472-1.682,5.031-3.335,7.699-4.959c1.262,5.148,2.914,10.49,4.568,15.174c0.971,2.748,1.936,5.256,2.813,7.358
		c0.884,2.116,1.66,3.784,2.37,5.038l6.836-3.908c-0.261-0.464-0.681-1.312-1.16-2.385c-1.696-3.777-4.161-10.374-6.148-17.087
		c-0.993-3.364-1.87-6.764-2.494-9.859c-0.624-3.096-0.979-5.902-0.972-7.932c0-0.783,0.044-1.45,0.13-1.929
		c0.014-0.065,0.022-0.108,0.029-0.166c1.261,0.442,2.856,1.138,4.654,2.037c3.436,1.725,7.583,4.132,11.817,6.771
		c6.35,3.958,12.926,8.424,17.892,11.89c2.486,1.74,4.567,3.218,6.032,4.27c0.732,0.529,1.305,0.943,1.696,1.226
		c0.392,0.283,0.594,0.435,0.594,0.435l4.662-6.351c-0.029-0.029-7.938-5.828-17.479-12.187c-2.74-1.827-5.611-3.69-8.468-5.481
		c11.889-4.219,25.055-7.249,39.148-8.177c-7.112,12.694-13.55,31.34-18.458,51.972c-5.764,24.236-9.396,51.147-9.396,74.12
		c0,13.694,1.29,25.99,4.219,35.516l1.131,3.675l0.406-3.828c1.283-12.165,7.293-28.071,15.594-45.02
		c12.455-25.417,30.057-53.212,44.534-74.628c7.25-10.715,13.709-19.835,18.356-26.273c1.624-2.247,3.009-4.147,4.147-5.691
		c11.309,4.539,22.865,10.78,34.573,19.088c-0.572,0.624-1.21,1.298-1.906,2.045c-9.482,10.12-29.854,31.565-49.24,53.234
		c-9.693,10.838-19.139,21.735-26.86,31.311c-7.721,9.576-13.709,17.812-16.536,23.445c-12.694,25.424-14.775,60.128-14.782,60.179
		l-0.21,3.379l1.682-2.944c0,0,0.218-0.376,0.623-1.065c2.842-4.85,15.094-25.128,27.607-37.634
		c4.872-4.879,15.833-12.179,29.448-20.284c20.43-12.172,46.898-26.237,68.263-37.256c10.672-5.51,20.074-10.259,26.809-13.63
		c2.276-1.146,4.226-2.117,5.843-2.915c3.059,5.134,6.003,10.411,8.801,15.812c3.784,7.286,7.322,14.811,10.657,22.438
		c-23.924,13.398-116.11,65.007-154.845,86.365c1.443-2.407,2.45-5.263,3.139-8.344c1-4.51,1.334-9.483,1.334-14.123
		c0-0.594-0.007-1.182-0.014-1.769c0.312-1.08,0.609-2.146,0.87-3.175c1.174-4.719,1.762-8.794,1.769-12.121h-3.929
		c-0.014-0.08-0.022-0.131-0.022-0.131l-0.776,0.131h-4.727c0,1.45-0.189,3.502-0.638,5.922c-0.768,4.248-2.306,9.635-4.69,15.434
		c-3.582,8.7-9.106,18.328-16.848,26.758C226.394,353.569,219.289,359.267,210.735,363.48z M237.145,408.42l-1.784-35.234
		l210.014-12.941c0.573,2.639,1.124,5.242,1.653,7.794c2.378,11.498,4.299,22.126,5.843,31.471L237.145,408.42z" style="fill: rgb(255, 255, 255);"></path>
	<path class="st0" d="M160.415,222.945c-7.83,0-14.18,6.351-14.18,14.18c0,7.83,6.351,14.18,14.18,14.18
		c7.837,0,14.187-6.35,14.187-14.18C174.602,229.296,168.252,222.945,160.415,222.945z" style="fill: rgb(255, 255, 255);"></path>
</g>
</svg>
